<svg xml:space="preserve" width="1921.55" height="2049.82" xmlns:xlink="http://www.w3.org/1999/xlink" xmlns="http://www.w3.org/2000/svg"><g transform="translate(-1038.2 -975.18)"><defs><path id="a" d="m2231.49 1929.11-229.21 55.75c82.08 76.76 253.64 44.9 360.57-2.74a533.3 533.3 0 0 1-14.85-81.34z"/></defs><clipPath id="c"><use xlink:href="#a" style="overflow:visible"/></clipPath><linearGradient id="b" gradientUnits="userSpaceOnUse" x1="2209.29" y1="2024.1" x2="2080.36" y2="1817.14"><stop offset="0" style="stop-color:#008a80"/><stop offset="1" style="stop-color:#ebf855"/></linearGradient><path style="fill:url(#b)" clip-path="url(#c)" d="M2002.28 1900.78h360.56v160.85h-360.56z"/><defs><filter id="d" filterUnits="userSpaceOnUse" x="2002.28" y="1900.78" width="349.19" height="89.68"><feColorMatrix values="1 0 0 0 0 0 1 0 0 0 0 0 1 0 0 0 0 0 1 0"/></filter></defs><mask maskUnits="userSpaceOnUse" x="2002.28" y="1900.78" width="349.19" height="89.69" id="f"><g style="filter:url(#d)"><linearGradient id="e" gradientUnits="userSpaceOnUse" x1="909.13" y1="4620.68" x2="-89.8" y2="4268.25" gradientTransform="translate(1567.24 -2569.4)"><stop offset="0" style="stop-color:#fff"/><stop offset="1" style="stop-color:#000"/></linearGradient><path style="fill:url(#e)" d="M2002.28 1900.78h349.19v89.69h-349.19z"/></g></mask><path style="clip-rule:evenodd;fill:#005b50;fill-rule:evenodd" d="m2231.49 1929.11-229.21 55.75s195.44 32.07 349.2-57.26a561.48 561.48 0 0 1-3.48-26.82z" mask="url(#f)"/><defs><path id="g" d="m2153.64 1844.95-288.64 22c95.23 123.64 356.84 101.58 487.67 52.39a610.93 610.93 0 0 1-8.78-88.9z"/></defs><clipPath id="i"><use xlink:href="#g" style="overflow:visible"/></clipPath><linearGradient id="h" gradientUnits="userSpaceOnUse" x1="2104.91" y1="1911.55" x2="1730.15" y2="2010.09"><stop offset="0" style="stop-color:#008a80"/><stop offset="1" style="stop-color:#ebf855"/></linearGradient><path style="fill:url(#h)" clip-path="url(#i)" d="M1865 1830.44h487.67v160.15H1865z"/><defs><path id="j" d="m2063.36 1715.13-366.11-40.77c99.3 195.82 495.02 217.1 647.15 169.15a725.18 725.18 0 0 1 2.15-96.84z"/></defs><clipPath id="l"><use xlink:href="#j" style="overflow:visible"/></clipPath><linearGradient id="k" gradientUnits="userSpaceOnUse" x1="1949.06" y1="1780.95" x2="1578.68" y2="1770.95"><stop offset="0" style="stop-color:#008a80"/><stop offset="1" style="stop-color:#ebf855"/></linearGradient><path style="fill:url(#k)" clip-path="url(#l)" d="M1697.25 1674.36h649.3v217.11h-649.3z"/><defs><path id="m" d="m2027.93 1558.93-400.6-133.8c68.54 259.81 563.44 377.95 717.83 339.98a840.35 840.35 0 0 1 8.37-75.82l-7.1-23.98z"/></defs><clipPath id="o"><use xlink:href="#m" style="overflow:visible"/></clipPath><linearGradient id="n" gradientUnits="userSpaceOnUse" x1="2042.34" y1="1624.62" x2="1484.27" y2="1511.6"><stop offset="0" style="stop-color:#008a80"/><stop offset="1" style="stop-color:#ebf855"/></linearGradient><path style="fill:url(#n)" clip-path="url(#o)" d="M1627.34 1425.13h726.19v377.95h-726.19z"/><defs><path id="p" d="m2075.98 1415.89-361.82-217.87c10.58 276.57 495.43 505 639.99 487.28a979.58 979.58 0 0 1 11.88-61.23l-2.39-34.96z"/></defs><clipPath id="r"><use xlink:href="#p" style="overflow:visible"/></clipPath><linearGradient id="q" gradientUnits="userSpaceOnUse" x1="2155.26" y1="1580.74" x2="1741.73" y2="1113.15"><stop offset="0" style="stop-color:#008a80"/><stop offset="1" style="stop-color:#ebf855"/></linearGradient><path style="fill:url(#q)" clip-path="url(#r)" d="M1714.16 1198.02h651.86v505h-651.86z"/><defs><path id="s" d="m2160.13 1318.55-294.73-266c-39.82 256.59 364.87 553.76 502.22 564.47a1145.35 1145.35 0 0 1 24.69-88.92z"/></defs><clipPath id="u"><use xlink:href="#s" style="overflow:visible"/></clipPath><linearGradient id="t" gradientUnits="userSpaceOnUse" x1="2305.81" y1="1572.69" x2="1837.1" y2="1006.26"><stop offset="0" style="stop-color:#008a80"/><stop offset="1" style="stop-color:#ebf855"/></linearGradient><path style="fill:url(#t)" clip-path="url(#u)" d="M1825.58 1052.55h566.73v564.47h-566.73z"/><defs><path id="v" d="M2266.08 1256.47 2052.1 975.18c-74.6 210.77 208.34 523.32 334.09 572.54 9.9-32.79 20.74-63.6 31.65-91.76z"/></defs><clipPath id="x"><use xlink:href="#v" style="overflow:visible"/></clipPath><linearGradient id="w" gradientUnits="userSpaceOnUse" x1="2283.71" y1="1528.14" x2="2112.24" y2="996.69"><stop offset="0" style="stop-color:#008a80"/><stop offset="1" style="stop-color:#ebf855"/></linearGradient><path style="fill:url(#w)" clip-path="url(#x)" d="M1977.49 975.18h440.35v572.54h-440.35z"/><defs><path id="y" d="M2401.5 1923.77c-27.1-115.27-30.64-265.4 34.71-443.66l-226.83-298.18s21 189.27 103.24 319.78c0 0-108.81 230.08-53.33 462.39 23.04 96.5 74.44 193.38 173.75 274.32a390.56 390.56 0 0 0 96.6-53.55s-88.85-93.87-128.15-261.1"/></defs><clipPath id="A"><use xlink:href="#y" style="overflow:visible"/></clipPath><linearGradient id="z" gradientUnits="userSpaceOnUse" x1="2326.97" y1="2014.11" x2="2396.54" y2="1482.26"><stop offset="0" style="stop-color:#00478f"/><stop offset="1" style="stop-color:#47eadf"/></linearGradient><path style="fill:url(#z)" clip-path="url(#A)" d="M2203.81 1181.93h325.84v1056.49h-325.84z"/><defs><filter id="B" filterUnits="userSpaceOnUse" x="2209.38" y="1181.93" width="320.27" height="1019.4"><feColorMatrix values="1 0 0 0 0 0 1 0 0 0 0 0 1 0 0 0 0 0 1 0"/></filter></defs><mask maskUnits="userSpaceOnUse" x="2209.38" y="1181.93" width="320.27" height="1019.4" id="D"><g style="filter:url(#B)"><linearGradient id="C" gradientUnits="userSpaceOnUse" x1="711.17" y1="3686.07" x2="829.8" y2="4614.82" gradientTransform="translate(1587.55 -2548.72)"><stop offset="0" style="stop-color:#fff"/><stop offset="1" style="stop-color:#000"/></linearGradient><path style="fill:url(#C)" d="M2209.38 1181.93h320.27v1019.4h-320.27z"/></g></mask><path style="clip-rule:evenodd;fill:#5ef9f6;fill-rule:evenodd" d="M2401.5 1923.77c-27.1-115.27-30.64-265.4 34.71-443.66l-226.83-298.18s109.63 165.31 191.88 295.82c0 0-108.81 230.08-53.34 462.4 21.82 91.33 69.03 183 158.22 261.18a402.4 402.4 0 0 0 23.5-16.46s-88.85-93.87-128.15-261.1" mask="url(#D)"/><defs><filter id="E" filterUnits="userSpaceOnUse" x="1865.4" y="1052.55" width="446.82" height="467.93"><feColorMatrix values="1 0 0 0 0 0 1 0 0 0 0 0 1 0 0 0 0 0 1 0"/></filter></defs><mask maskUnits="userSpaceOnUse" x="1865.4" y="1052.55" width="446.82" height="467.93" id="G"><g style="filter:url(#E)"><linearGradient id="F" gradientUnits="userSpaceOnUse" x1="914.59" y1="4036.04" x2="120.79" y2="3755.73" gradientTransform="translate(1553.82 -2615.47)"><stop offset="0" style="stop-color:#fff"/><stop offset="1" style="stop-color:#000"/></linearGradient><path style="fill:url(#F)" d="M1865.4 1052.56h446.82v467.93H1865.4z"/></g></mask><path style="clip-rule:evenodd;fill:#005b50;fill-rule:evenodd" d="M1865.4 1052.55s130.86 312.04 439.15 467.94c3.9-9.61 6.68-15.77 7.67-17.92-65.1-50.5-141.39-132.86-196.65-224.24z" mask="url(#G)"/><defs><filter id="H" filterUnits="userSpaceOnUse" x="1714.16" y="1198.02" width="566.13" height="431.21"><feColorMatrix values="1 0 0 0 0 0 1 0 0 0 0 0 1 0 0 0 0 0 1 0"/></filter></defs><mask maskUnits="userSpaceOnUse" x="1714.16" y="1198.02" width="566.13" height="431.21" id="J"><g style="filter:url(#H)"><linearGradient id="I" gradientUnits="userSpaceOnUse" x1="1084.43" y1="4239.36" x2="85.5" y2="3886.93" gradientTransform="translate(1539 -2604.8)"><stop offset="0" style="stop-color:#fff"/><stop offset="1" style="stop-color:#000"/></linearGradient><path style="fill:url(#I)" d="M1714.16 1198.02h566.13v431.21h-566.13z"/></g></mask><path style="clip-rule:evenodd;fill:#005b50;fill-rule:evenodd" d="M2280.3 1589.47c-88.2-41.36-203.55-125.04-290.68-225.58l-275.46-165.87s274.8 322.45 555.04 431.21a898.1 898.1 0 0 1 11.1-39.76" mask="url(#J)"/><defs><filter id="K" filterUnits="userSpaceOnUse" x="1627.34" y="1425.13" width="631.5" height="282.78"><feColorMatrix values="1 0 0 0 0 0 1 0 0 0 0 0 1 0 0 0 0 0 1 0"/></filter></defs><mask maskUnits="userSpaceOnUse" x="1627.34" y="1425.13" width="631.5" height="282.78" id="M"><g style="filter:url(#K)"><linearGradient id="L" gradientUnits="userSpaceOnUse" x1="1038.98" y1="4384.6" x2="40.05" y2="4032.18" gradientTransform="translate(1530.49 -2597.1)"><stop offset="0" style="stop-color:#fff"/><stop offset="1" style="stop-color:#000"/></linearGradient><path style="fill:url(#L)" d="M1627.34 1425.13h631.5v282.78h-631.5z"/></g></mask><path style="clip-rule:evenodd;fill:#005b50;fill-rule:evenodd" d="M1627.34 1425.13s307.12 232.96 625.63 282.78c1.78-11.3 3.76-22.3 5.87-32.96-85.44-21.1-198.27-70.55-299.1-138.79z" mask="url(#M)"/><defs><filter id="N" filterUnits="userSpaceOnUse" x="1697.25" y="1674.36" width="548.32" height="123.47"><feColorMatrix values="1 0 0 0 0 0 1 0 0 0 0 0 1 0 0 0 0 0 1 0"/></filter></defs><mask maskUnits="userSpaceOnUse" x="1697.25" y="1674.36" width="548.32" height="123.47" id="P"><g style="filter:url(#N)"><linearGradient id="O" gradientUnits="userSpaceOnUse" x1="982.01" y1="4517.65" x2="-16.83" y2="4165.33" gradientTransform="translate(1537.34 -2588.28)"><stop offset="0" style="stop-color:#fff"/><stop offset="1" style="stop-color:#000"/></linearGradient><path style="fill:url(#O)" d="M1697.25 1674.36h548.32v123.47h-548.32z"/></g></mask><path style="clip-rule:evenodd;fill:#005b50;fill-rule:evenodd" d="M1697.25 1674.36s203.68 147.15 546.94 120.17c.34-7.83.8-15.58 1.38-23.25-86.3-4.45-199.26-27.95-305.45-69.87z" mask="url(#P)"/><defs><filter id="Q" filterUnits="userSpaceOnUse" x="1865" y="1854.63" width="382.47" height="48.33"><feColorMatrix values="1 0 0 0 0 0 1 0 0 0 0 0 1 0 0 0 0 0 1 0"/></filter></defs><mask maskUnits="userSpaceOnUse" x="1865" y="1854.63" width="382.47" height="48.33" id="S"><g style="filter:url(#Q)"><linearGradient id="R" gradientUnits="userSpaceOnUse" x1="930.22" y1="4607.69" x2="-68.71" y2="4255.26" gradientTransform="translate(1553.78 -2577.97)"><stop offset="0" style="stop-color:#fff"/><stop offset="1" style="stop-color:#000"/></linearGradient><path style="fill:url(#R)" d="M1865 1854.63h382.47v48.33H1865z"/></g></mask><path style="clip-rule:evenodd;fill:#005b50;fill-rule:evenodd" d="M1865 1866.95s192.77 54.65 382.47 29.3a616.96 616.96 0 0 1-2.9-34.45c-64.47 5.94-141.58 4.42-217.94-7.17z" mask="url(#S)"/><defs><path id="T" d="M1876.34 2884.28c175.75-15.86 305.3-331.54 289.83-423.88-14.39.2-28.51-.02-42.28-.6z"/></defs><clipPath id="V"><use xlink:href="#T" style="overflow:visible"/></clipPath><linearGradient id="U" gradientUnits="userSpaceOnUse" x1="1843.13" y1="2888.1" x2="2009.5" y2="2694.7"><stop offset="0" style="stop-color:#ffce4b"/><stop offset="1" style="stop-color:#f856bf"/></linearGradient><path style="fill:url(#U)" clip-path="url(#V)" d="M1876.34 2459.81h305.31v424.47h-305.31z"/><defs><path id="W" d="m2039.13 2695.91-68.86 298.58c188-69.4 236.65-453.83 192.35-550.49a847.16 847.16 0 0 1-34.84 9.14l-54.03 92.64z"/></defs><clipPath id="Y"><use xlink:href="#W" style="overflow:visible"/></clipPath><linearGradient id="X" gradientUnits="userSpaceOnUse" x1="1950.23" y1="2912.01" x2="2102.53" y2="2699.84"><stop offset="0" style="stop-color:#ffce4b"/><stop offset="1" style="stop-color:#f856bf"/></linearGradient><path style="fill:url(#X)" clip-path="url(#Y)" d="M1970.27 2444h236.64v550.49h-236.64z"/><defs><path id="Z" d="m2095.2 2709.9 6.85 315.1c169.9-116.72 121.19-512.33 52.58-597.5a863.3 863.3 0 0 1-17.74 10.02l-45.9 78.7z"/></defs><clipPath id="ab"><use xlink:href="#Z" style="overflow:visible"/></clipPath><linearGradient id="aa" gradientUnits="userSpaceOnUse" x1="2050.54" y1="2868.36" x2="2188.04" y2="2719.12"><stop offset="0" style="stop-color:#ffce4b"/><stop offset="1" style="stop-color:#f856bf"/></linearGradient><path style="fill:url(#aa)" clip-path="url(#ab)" d="M2091 2427.49h180.95V3025H2091z"/><defs><path id="ac" d="m2159.7 2684.49 73.18 286.6c130.53-142.79 1.98-494.09-78.84-557.38a778.46 778.46 0 0 1-7.12 6.62l-38.03 65.2z"/></defs><clipPath id="ae"><use xlink:href="#ac" style="overflow:visible"/></clipPath><linearGradient id="ad" gradientUnits="userSpaceOnUse" x1="2180.39" y1="2825.36" x2="2244.35" y2="2672.86"><stop offset="0" style="stop-color:#ffce4b"/><stop offset="1" style="stop-color:#f856bf"/></linearGradient><path style="fill:url(#ad)" clip-path="url(#ae)" d="M2108.89 2413.71h254.51v557.39h-254.51z"/><defs><path id="af" d="m2190.87 2626.3 112.75 223.5c81.82-141.8-88.48-408.67-166.81-446.24l-1.38 2.01a287.2 287.2 0 0 1 11.5 14.76l-32.16 55.13z"/></defs><clipPath id="ah"><use xlink:href="#af" style="overflow:visible"/></clipPath><linearGradient id="ag" gradientUnits="userSpaceOnUse" x1="2267.06" y1="2741.63" x2="2240.85" y2="2563.94"><stop offset="0" style="stop-color:#ffce4b"/><stop offset="1" style="stop-color:#f856bf"/></linearGradient><path style="fill:url(#ag)" clip-path="url(#ah)" d="M2114.77 2403.56h270.67v446.24h-270.67z"/><defs><path id="ai" d="m1834.94 2016.4-397.7 279.23c269.15 107 679.1-217.35 787.7-397.58-29.81-30.76-57.23-63.6-82.39-97.65z"/></defs><clipPath id="ak"><use xlink:href="#ai" style="overflow:visible"/></clipPath><linearGradient id="aj" gradientUnits="userSpaceOnUse" x1="1761.38" y1="2159.78" x2="1386.31" y2="2473.24"><stop offset="0" style="stop-color:#008a80"/><stop offset="1" style="stop-color:#ebf855"/></linearGradient><path style="fill:url(#aj)" clip-path="url(#ak)" d="M1437.25 1800.4h787.7v602.23h-787.7z"/><defs><path id="al" d="m1586.22 1709.42-548.02 100.33c251.86 264.3 930.79 67.03 1058.29-76.68a1291.95 1291.95 0 0 1-41.69-70.92l-32.87-32.5z"/></defs><clipPath id="an"><use xlink:href="#al" style="overflow:visible"/></clipPath><linearGradient id="am" gradientUnits="userSpaceOnUse" x1="1798.9" y1="1880.61" x2="981.84" y2="1779.12"><stop offset="0" style="stop-color:#008a80"/><stop offset="1" style="stop-color:#ebf855"/></linearGradient><path style="fill:url(#am)" clip-path="url(#an)" d="M1038.2 1629.65h1058.29v444.4H1038.2z"/><defs><path id="ao" d="m1584.49 1539.7-523.67-5.84c184.57 288.54 844.21 229.22 989.4 119.93a1510.59 1510.59 0 0 1-53.2-109.5z"/></defs><clipPath id="aq"><use xlink:href="#ao" style="overflow:visible"/></clipPath><linearGradient id="ap" gradientUnits="userSpaceOnUse" x1="1938.63" y1="1738.54" x2="980.61" y2="1587.47"><stop offset="0" style="stop-color:#008a80"/><stop offset="1" style="stop-color:#ebf855"/></linearGradient><path style="fill:url(#ap)" clip-path="url(#aq)" d="M1060.82 1533.86h989.41v288.53h-989.41z"/><defs><path id="ar" d="M2706.13 2073.99s153.46-16.16 253.62 92.07c0 0-14.54-93.69-53.31-121.15 66.83-174-135.93-315.2-320.2-284.8-294.46 48.58-535.84 707.55-514.98 950.34 197.9-183.11 564.88-294.04 634.87-636.46"/></defs><clipPath id="at"><use xlink:href="#ar" style="overflow:visible"/></clipPath><linearGradient id="as" gradientUnits="userSpaceOnUse" x1="2499.38" y1="2560.52" x2="2528.45" y2="1765.7"><stop offset="0" style="stop-color:#003780"/><stop offset="1" style="stop-color:#d820d2"/></linearGradient><path style="fill:url(#as)" clip-path="url(#at)" d="M2050.4 1729.71h922.87v980.74H2050.4z"/><path style="clip-rule:evenodd;fill:#003780;fill-rule:evenodd" d="M2112.2 2426.22c86.17-181.13 327.93-213.12 458.64-216.64-102.67-8.3-191.45-38.66-267.74-81.82a685.73 685.73 0 0 1-57.07-36.14 1482.37 1482.37 0 0 0-16.06 30.88 1676.32 1676.32 0 0 0-70.47 160.48 1709.56 1709.56 0 0 0-47.3 143.24"/><defs><filter id="au" filterUnits="userSpaceOnUse" x="2351.47" y="1755.97" width="559.64" height="171.64"><feColorMatrix values="1 0 0 0 0 0 1 0 0 0 0 0 1 0 0 0 0 0 1 0"/></filter></defs><mask maskUnits="userSpaceOnUse" x="2351.47" y="1755.97" width="559.64" height="171.64" id="aw"><g style="filter:url(#au)"><linearGradient id="av" gradientUnits="userSpaceOnUse" x1="1051.18" y1="4053.15" x2="1016.5" y2="4644.37" gradientTransform="translate(1601.48 -2575.56)"><stop offset="0" style="stop-color:#fff"/><stop offset="1" style="stop-color:#000"/></linearGradient><path style="fill:url(#av)" d="M2351.47 1755.97h559.65v171.64h-559.65z"/></g></mask><path style="clip-rule:evenodd;fill:#fce2a6;fill-rule:evenodd" d="M2351.47 1927.6s286.06-180.1 559.65-3.06c-36.46-112.7-185.93-187.35-324.89-164.43-84.22 13.9-164.11 77.74-234.76 167.5" mask="url(#aw)"/><defs><path id="ax" d="m2187.99 2081.28-178.04 255.2c148.2 4.28 290.06-176.98 354.23-317.43a703.52 703.52 0 0 1-85.69-67.5z"/></defs><clipPath id="az"><use xlink:href="#ax" style="overflow:visible"/></clipPath><linearGradient id="ay" gradientUnits="userSpaceOnUse" x1="2257.25" y1="2167.14" x2="1949.09" y2="2075.03"><stop offset="0" style="stop-color:#008a80"/><stop offset="1" style="stop-color:#ebf855"/></linearGradient><path style="fill:url(#ay)" clip-path="url(#az)" d="M2009.95 1951.56h354.22v389.2h-354.22z"/><defs><filter id="aA" filterUnits="userSpaceOnUse" x="2009.95" y="1951.56" width="295.39" height="384.92"><feColorMatrix values="1 0 0 0 0 0 1 0 0 0 0 0 1 0 0 0 0 0 1 0"/></filter></defs><mask maskUnits="userSpaceOnUse" x="2009.95" y="1951.56" width="295.39" height="384.92" id="aC"><g style="filter:url(#aA)"><linearGradient id="aB" gradientUnits="userSpaceOnUse" x1="969.75" y1="4525.94" x2="-325.82" y2="5049.33" gradientTransform="translate(1568 -2535.47)"><stop offset="0" style="stop-color:#fff"/><stop offset="1" style="stop-color:#000"/></linearGradient><path style="fill:url(#aB)" d="M2009.95 1951.56h295.39v384.92h-295.39z"/></g></mask><path style="clip-rule:evenodd;fill:#005b50;fill-rule:evenodd" d="m2187.99 2081.28-178.04 255.2s221.3-138.87 295.4-361.42a743.61 743.61 0 0 1-26.86-23.5z" mask="url(#aC)"/><defs><path id="aD" d="m2037.54 2065.98-266.27 273.71c202.1 39.16 441.6-211 528.05-373.85a806.04 806.04 0 0 1-86.28-80.27z"/></defs><clipPath id="aF"><use xlink:href="#aD" style="overflow:visible"/></clipPath><linearGradient id="aE" gradientUnits="userSpaceOnUse" x1="2019.59" y1="2155.62" x2="1734.9" y2="2580.17"><stop offset="0" style="stop-color:#008a80"/><stop offset="1" style="stop-color:#ebf855"/></linearGradient><path style="fill:url(#aE)" clip-path="url(#aF)" d="M1771.27 1885.57h528.05v493.28h-528.05z"/><defs><path id="aG" d="m1663.56 1892.83-513 217.32c294.56 197.15 887.16-117.98 1006.71-290.3-20.72-26.72-40-54.29-57.9-82.29l-27.96-17.52z"/></defs><clipPath id="aI"><use xlink:href="#aG" style="overflow:visible"/></clipPath><linearGradient id="aH" gradientUnits="userSpaceOnUse" x1="1744.47" y1="1961.43" x2="1093.89" y2="2336.71"><stop offset="0" style="stop-color:#008a80"/><stop offset="1" style="stop-color:#ebf855"/></linearGradient><path style="fill:url(#aH)" clip-path="url(#aI)" d="M1150.57 1720.04h1006.7v587.26h-1006.7z"/><defs><path id="aJ" d="m1635.1 1385.82-457.16-91.44c110.17 273.59 662.83 335.74 830.16 274.65-18.83-41.06-35-81-48.8-118.37z"/></defs><clipPath id="aL"><use xlink:href="#aJ" style="overflow:visible"/></clipPath><linearGradient id="aK" gradientUnits="userSpaceOnUse" x1="1889.99" y1="1638.52" x2="1256.54" y2="1262.53"><stop offset="0" style="stop-color:#008a80"/><stop offset="1" style="stop-color:#ebf855"/></linearGradient><path style="fill:url(#aK)" clip-path="url(#aL)" d="M1177.94 1294.38h830.16v335.74h-830.16z"/><defs><path id="aM" d="M2351.47 1927.6c-127.4-90.36-261.94-235.75-352.9-469.1l-484.63-96.92s185.98 168.87 381.24 226.16c0 0 93.2 322.53 350.85 503.88 107.02 75.33 242.42 126.3 411.29 119.66a515.25 515.25 0 0 0 48.8-137.3s-169.82-15.28-354.65-146.37"/></defs><clipPath id="aO"><use xlink:href="#aM" style="overflow:visible"/></clipPath><linearGradient id="aN" gradientUnits="userSpaceOnUse" x1="2322.47" y1="2105" x2="1927.1" y2="1518.27"><stop offset="0" style="stop-color:#00478f"/><stop offset="1" style="stop-color:#47eadf"/></linearGradient><path style="fill:url(#aN)" clip-path="url(#aO)" d="M1513.94 1361.58h1192.19v856.33H1513.94z"/><defs><filter id="aP" filterUnits="userSpaceOnUse" x="1513.94" y="1361.58" width="1192.19" height="749.21"><feColorMatrix values="1 0 0 0 0 0 1 0 0 0 0 0 1 0 0 0 0 0 1 0"/></filter></defs><mask maskUnits="userSpaceOnUse" x="1513.94" y="1361.58" width="1192.19" height="749.21" id="aR"><g style="filter:url(#aP)"><linearGradient id="aQ" gradientUnits="userSpaceOnUse" x1="35.77" y1="3806.41" x2="963.81" y2="4621.52" gradientTransform="translate(1519.37 -2557.6)"><stop offset="0" style="stop-color:#fff"/><stop offset="1" style="stop-color:#000"/></linearGradient><path style="fill:url(#aQ)" d="M1513.94 1361.58h1192.19v749.21H1513.94z"/></g></mask><path style="clip-rule:evenodd;fill:#5ef9f6;fill-rule:evenodd" d="M2351.47 1927.6c-127.4-90.36-261.94-235.75-352.9-469.1l-484.63-96.92s252.73 67.81 448 125.1c0 0 93.2 322.54 350.85 503.88 101.29 71.3 228 120.75 384.45 120.23a532.7 532.7 0 0 0 8.89-36.8s-169.83-15.29-354.66-146.38" mask="url(#aR)"/><defs><filter id="aS" filterUnits="userSpaceOnUse" x="1060.82" y="1533.86" width="842.77" height="115.82"><feColorMatrix values="1 0 0 0 0 0 1 0 0 0 0 0 1 0 0 0 0 0 1 0"/></filter></defs><mask maskUnits="userSpaceOnUse" x="1060.82" y="1533.86" width="842.77" height="115.82" id="aU"><g style="filter:url(#aS)"><linearGradient id="aT" gradientUnits="userSpaceOnUse" x1="510.44" y1="3991.48" x2="-519.39" y2="4407.15" gradientTransform="translate(1474.95 -2602.8)"><stop offset="0" style="stop-color:#fff"/><stop offset="1" style="stop-color:#000"/></linearGradient><path style="fill:url(#aT)" d="M1060.82 1533.86h842.77v115.82h-842.77z"/></g></mask><path style="clip-rule:evenodd;fill:#005b50;fill-rule:evenodd" d="M1060.82 1533.86s401.78 194.4 842.77 79.5a591.34 591.34 0 0 1-8.05-24.42c-108.46 6.89-255.8-7.98-390.23-50.13z" mask="url(#aU)"/><defs><filter id="aV" filterUnits="userSpaceOnUse" x="1038.2" y="1702.76" width="925.33" height="129.68"><feColorMatrix values="1 0 0 0 0 0 1 0 0 0 0 0 1 0 0 0 0 0 1 0"/></filter></defs><mask maskUnits="userSpaceOnUse" x="1038.2" y="1702.76" width="925.33" height="129.68" id="aX"><g style="filter:url(#aV)"><linearGradient id="aW" gradientUnits="userSpaceOnUse" x1="842.09" y1="4023.66" x2="-453.47" y2="4547.05" gradientTransform="translate(1472.73 -2584.89)"><stop offset="0" style="stop-color:#fff"/><stop offset="1" style="stop-color:#000"/></linearGradient><path style="fill:url(#aW)" d="M1038.2 1702.76h925.33v129.68H1038.2z"/></g></mask><path style="clip-rule:evenodd;fill:#005b50;fill-rule:evenodd" d="M1939.8 1702.76c-123.32 36.06-310.45 54-484.38 30.6l-417.22 76.39s553.23 79.06 925.33-57.98a1184.41 1184.41 0 0 1-23.73-49.01" mask="url(#aX)"/><defs><filter id="aY" filterUnits="userSpaceOnUse" x="1150.57" y="1806.02" width="865.6" height="304.13"><feColorMatrix values="1 0 0 0 0 0 1 0 0 0 0 0 1 0 0 0 0 0 1 0"/></filter></defs><mask maskUnits="userSpaceOnUse" x="1150.57" y="1806.02" width="865.6" height="304.13" id="ba"><g style="filter:url(#aY)"><linearGradient id="aZ" gradientUnits="userSpaceOnUse" x1="908.84" y1="4188.84" x2="-386.72" y2="4712.22" gradientTransform="translate(1483.75 -2557.66)"><stop offset="0" style="stop-color:#fff"/><stop offset="1" style="stop-color:#000"/></linearGradient><path style="fill:url(#aZ)" d="M1150.57 1806.02h865.6v304.13h-865.6z"/></g></mask><path style="clip-rule:evenodd;fill:#005b50;fill-rule:evenodd" d="M1150.57 2110.16s507.1-37.67 865.6-266.4a1112.93 1112.93 0 0 1-22.97-37.74c-102.91 53.72-257.68 103.29-416.95 123.8z" mask="url(#ba)"/><defs><filter id="bb" filterUnits="userSpaceOnUse" x="1437.25" y="1912.89" width="645.83" height="382.74"><feColorMatrix values="1 0 0 0 0 0 1 0 0 0 0 0 1 0 0 0 0 0 1 0"/></filter></defs><mask maskUnits="userSpaceOnUse" x="1437.25" y="1912.89" width="645.83" height="382.74" id="bd"><g style="filter:url(#bb)"><linearGradient id="bc" gradientUnits="userSpaceOnUse" x1="956.29" y1="4357.73" x2="-339.27" y2="4881.11" gradientTransform="translate(1511.85 -2539.48)"><stop offset="0" style="stop-color:#fff"/><stop offset="1" style="stop-color:#000"/></linearGradient><path style="fill:url(#bc)" d="M1437.25 1912.89h645.83v382.74h-645.83z"/></g></mask><path style="clip-rule:evenodd;fill:#005b50;fill-rule:evenodd" d="M1437.25 2295.63s329.89-32.24 645.83-358.55c-6.5-8.03-12.8-16.1-18.92-24.19-89.24 70.92-221.48 146.28-363.09 197.5z" mask="url(#bd)"/><defs><filter id="be" filterUnits="userSpaceOnUse" x="1771.27" y="2003.3" width="403.86" height="336.4"><feColorMatrix values="1 0 0 0 0 0 1 0 0 0 0 0 1 0 0 0 0 0 1 0"/></filter></defs><mask maskUnits="userSpaceOnUse" x="1771.27" y="2003.3" width="403.86" height="336.4" id="bg"><g style="filter:url(#be)"><linearGradient id="bf" gradientUnits="userSpaceOnUse" x1="976.84" y1="4485.13" x2="-318.72" y2="5008.62" gradientTransform="translate(1544.6 -2535.16)"><stop offset="0" style="stop-color:#fff"/><stop offset="1" style="stop-color:#000"/></linearGradient><path style="fill:url(#bf)" d="M1771.27 2003.3h403.86v336.4h-403.86z"/></g></mask><path style="clip-rule:evenodd;fill:#005b50;fill-rule:evenodd" d="M1771.27 2339.7s238.35-114.22 403.86-304.87a807.97 807.97 0 0 1-32.95-31.54c-58.57 62.15-136.17 127.95-221.81 183.13z" mask="url(#bg)"/></g></svg>